<svg xmlns="http://www.w3.org/2000/svg" width="1200" height="630" viewBox="0 0 1200 630" role="img" aria-label="Cross promo YouTube Telegram Instagram">
  <defs>
    <linearGradient id="bg5" x1="0" y1="0" x2="1" y2="1">
      <stop offset="0%" stop-color="#005bbb"/>
      <stop offset="100%" stop-color="#0f172a"/>
    </linearGradient>
  </defs>
  <rect width="1200" height="630" fill="url(#bg5)"/>
  <circle cx="600" cy="310" r="130" fill="#ffd500"/>
  <rect x="520" y="265" width="160" height="90" rx="20" fill="#ef4444"/>
  <polygon points="575,285 575,335 625,310" fill="#ffffff"/>
  <circle cx="250" cy="190" r="100" fill="#38bdf8"/>
  <polygon points="220,190 290,160 270,240 240,220" fill="#ffffff"/>
  <circle cx="940" cy="210" r="100" fill="#f472b6"/>
  <circle cx="940" cy="210" r="54" fill="#ffffff"/>
  <circle cx="940" cy="210" r="28" fill="#f472b6"/>
  <circle cx="940" cy="155" r="12" fill="#ffffff"/>
  <path d="M340 220 C430 260 470 280 520 300" stroke="#ffffff" stroke-width="10" fill="none"/>
  <path d="M840 230 C760 260 720 280 680 300" stroke="#ffffff" stroke-width="10" fill="none"/>
  <path d="M600 440 C600 470 600 500 600 530" stroke="#ffffff" stroke-width="10" fill="none"/>
  <text x="430" y="585" fill="#ffffff" font-family="Arial, sans-serif" font-size="40" font-weight="700">Cross-promo Growth System</text>
</svg>
