<svg xmlns="http://www.w3.org/2000/svg" width="1200" height="630" viewBox="0 0 1200 630" role="img" aria-label="Як масштабуватися до 10 обмінів на місяць">
  <defs>
    <linearGradient id="bg-11" x1="0" y1="0" x2="1" y2="1">
      <stop offset="0%" stop-color="#0b5ed7"/>
      <stop offset="100%" stop-color="#ffdd57"/>
    </linearGradient>
  </defs>
  <rect width="1200" height="630" fill="url(#bg-11)"/>
  <path d="M70 150 L140 70 H1080 L1130 120 V520 L1080 560 H120 L70 510 Z" fill="rgba(7,12,30,.36)" stroke="rgba(255,255,255,.22)"/>
  
    <circle cx="696" cy="146" r="88" fill="#e6f0ff" opacity="0.21"/>
    <circle cx="836" cy="196" r="68" fill="#e6f0ff" opacity="0.31"/>
    <path d="M700 430 C820 366, 970 454, 1080 380" stroke="#e6f0ff" stroke-width="8" fill="none" opacity="0.8"/>
    <rect x="760" y="314" width="38" height="206" rx="8" fill="#e6f0ff" opacity="0.82"/><rect x="822" y="463" width="38" height="57" rx="8" fill="#e6f0ff" opacity="0.82"/><rect x="884" y="432" width="38" height="88" rx="8" fill="#e6f0ff" opacity="0.82"/><rect x="946" y="401" width="38" height="119" rx="8" fill="#e6f0ff" opacity="0.82"/><rect x="1008" y="370" width="38" height="150" rx="8" fill="#e6f0ff" opacity="0.82"/>
  
  <text x="100" y="126" fill="#dbeafe" font-size="26" font-weight="700" font-family="Segoe UI, Arial, sans-serif">Біржа Каналів • Блог</text>
  <text x="100" y="210" fill="#ffffff" font-size="38" font-weight="800" font-family="Segoe UI, Arial, sans-serif">Як масштабуватися до 10 обмінів на</text><text x="100" y="256" fill="#ffffff" font-size="38" font-weight="800" font-family="Segoe UI, Arial, sans-serif">місяць</text>
  <text x="100" y="326" fill="#f8fafc" font-size="24" font-weight="500" font-family="Segoe UI, Arial, sans-serif">Практичний гайд для обміну YouTube-аудиторією</text>
</svg>