<svg xmlns="http://www.w3.org/2000/svg" width="1200" height="630" viewBox="0 0 1200 630" role="img" aria-label="Популярні українські YouTube-ніші у 2026">
  <defs>
    <linearGradient id="bg-9" x1="0" y1="0" x2="1" y2="1">
      <stop offset="0%" stop-color="#0369a1"/>
      <stop offset="100%" stop-color="#facc15"/>
    </linearGradient>
  </defs>
  <rect width="1200" height="630" fill="url(#bg-9)"/>
  <path d="M72 110 Q72 70 112 70 H1088 Q1128 70 1128 110 V520 Q1128 560 1088 560 H112 Q72 560 72 520 Z" fill="rgba(7,12,30,.34)" stroke="rgba(255,255,255,.24)"/>
  
    <circle cx="777" cy="127" r="89" fill="#e6f0ff" opacity="0.32"/>
    <circle cx="917" cy="177" r="69" fill="#e6f0ff" opacity="0.42"/>
    <path d="M700 430 C820 387, 970 433, 1080 380" stroke="#e6f0ff" stroke-width="8" fill="none" opacity="0.8"/>
    <rect x="760" y="333" width="38" height="187" rx="8" fill="#e6f0ff" opacity="0.82"/><rect x="822" y="302" width="38" height="218" rx="8" fill="#e6f0ff" opacity="0.82"/><rect x="884" y="451" width="38" height="69" rx="8" fill="#e6f0ff" opacity="0.82"/><rect x="946" y="420" width="38" height="100" rx="8" fill="#e6f0ff" opacity="0.82"/><rect x="1008" y="389" width="38" height="131" rx="8" fill="#e6f0ff" opacity="0.82"/>
  
  <text x="100" y="148" fill="#dbeafe" font-size="26" font-weight="700" font-family="Segoe UI, Arial, sans-serif">Біржа Каналів • Блог</text>
  <text x="100" y="232" fill="#ffffff" font-size="38" font-weight="800" font-family="Segoe UI, Arial, sans-serif">Популярні українські YouTube-ніші у</text><text x="100" y="278" fill="#ffffff" font-size="38" font-weight="800" font-family="Segoe UI, Arial, sans-serif">2026</text>
  <text x="100" y="348" fill="#f8fafc" font-size="24" font-weight="500" font-family="Segoe UI, Arial, sans-serif">Практичний гайд для обміну YouTube-аудиторією</text>
</svg>