<svg xmlns="http://www.w3.org/2000/svg" width="1200" height="630" viewBox="0 0 1200 630" role="img" aria-label="Щомісячний звіт по обмінах: шаблон">
  <defs>
    <linearGradient id="bg-18" x1="0" y1="0" x2="1" y2="1">
      <stop offset="0%" stop-color="#005bbb"/>
      <stop offset="100%" stop-color="#ffd500"/>
    </linearGradient>
  </defs>
  <rect width="1200" height="630" fill="url(#bg-18)"/>
  <rect x="84" y="84" width="1032" height="462" rx="20" fill="rgba(7,12,30,.38)" stroke="rgba(255,255,255,.22)"/><rect x="96" y="96" width="1008" height="438" rx="14" fill="none" stroke="rgba(255,255,255,.10)"/>
  
    <circle cx="787" cy="107" r="87" fill="#ffffff" opacity="0.42"/>
    <circle cx="927" cy="157" r="67" fill="#ffffff" opacity="0.52"/>
    <path d="M700 430 C820 377, 970 443, 1080 380" stroke="#ffffff" stroke-width="8" fill="none" opacity="0.8"/>
    <rect x="760" y="443" width="38" height="77" rx="8" fill="#ffffff" opacity="0.82"/><rect x="822" y="412" width="38" height="108" rx="8" fill="#ffffff" opacity="0.82"/><rect x="884" y="381" width="38" height="139" rx="8" fill="#ffffff" opacity="0.82"/><rect x="946" y="350" width="38" height="170" rx="8" fill="#ffffff" opacity="0.82"/><rect x="1008" y="319" width="38" height="201" rx="8" fill="#ffffff" opacity="0.82"/>
  
  <text x="100" y="126" fill="#dbeafe" font-size="26" font-weight="700" font-family="Segoe UI, Arial, sans-serif">Біржа Каналів • Блог</text>
  <text x="100" y="210" fill="#ffffff" font-size="38" font-weight="800" font-family="Segoe UI, Arial, sans-serif">Щомісячний звіт по обмінах: шаблон</text>
  <text x="100" y="280" fill="#f8fafc" font-size="24" font-weight="500" font-family="Segoe UI, Arial, sans-serif">Практичний гайд для обміну YouTube-аудиторією</text>
</svg>