<svg xmlns="http://www.w3.org/2000/svg" width="1200" height="630" viewBox="0 0 1200 630" role="img" aria-label="Портфельна стратегія для креатора з кількома каналами">
  <defs>
    <linearGradient id="bg-17" x1="0" y1="0" x2="1" y2="1">
      <stop offset="0%" stop-color="#0b5ed7"/>
      <stop offset="100%" stop-color="#ffdd57"/>
    </linearGradient>
  </defs>
  <rect width="1200" height="630" fill="url(#bg-17)"/>
  <path d="M72 110 Q72 70 112 70 H1088 Q1128 70 1128 110 V520 Q1128 560 1088 560 H112 Q72 560 72 520 Z" fill="rgba(7,12,30,.34)" stroke="rgba(255,255,255,.24)"/>
  
    <circle cx="759" cy="149" r="73" fill="#e6f0ff" opacity="0.24"/>
    <circle cx="899" cy="199" r="53" fill="#e6f0ff" opacity="0.34"/>
    <path d="M700 430 C820 389, 970 431, 1080 380" stroke="#e6f0ff" stroke-width="8" fill="none" opacity="0.8"/>
    <rect x="760" y="311" width="38" height="209" rx="8" fill="#e6f0ff" opacity="0.82"/><rect x="822" y="460" width="38" height="60" rx="8" fill="#e6f0ff" opacity="0.82"/><rect x="884" y="429" width="38" height="91" rx="8" fill="#e6f0ff" opacity="0.82"/><rect x="946" y="398" width="38" height="122" rx="8" fill="#e6f0ff" opacity="0.82"/><rect x="1008" y="367" width="38" height="153" rx="8" fill="#e6f0ff" opacity="0.82"/>
  
  <text x="100" y="148" fill="#dbeafe" font-size="26" font-weight="700" font-family="Segoe UI, Arial, sans-serif">Біржа Каналів • Блог</text>
  <text x="100" y="232" fill="#ffffff" font-size="38" font-weight="800" font-family="Segoe UI, Arial, sans-serif">Портфельна стратегія для креатора з</text><text x="100" y="278" fill="#ffffff" font-size="38" font-weight="800" font-family="Segoe UI, Arial, sans-serif">кількома каналами</text>
  <text x="100" y="348" fill="#f8fafc" font-size="24" font-weight="500" font-family="Segoe UI, Arial, sans-serif">Практичний гайд для обміну YouTube-аудиторією</text>
</svg>