<svg xmlns="http://www.w3.org/2000/svg" width="1200" height="630" viewBox="0 0 1200 630" role="img" aria-label="Скрипт переговорів для обміну каналами">
  <defs>
    <linearGradient id="bg-3" x1="0" y1="0" x2="1" y2="1">
      <stop offset="0%" stop-color="#0369a1"/>
      <stop offset="100%" stop-color="#facc15"/>
    </linearGradient>
  </defs>
  <rect width="1200" height="630" fill="url(#bg-3)"/>
  <path d="M70 150 L140 70 H1080 L1130 120 V520 L1080 560 H120 L70 510 Z" fill="rgba(7,12,30,.36)" stroke="rgba(255,255,255,.22)"/>
  
    <circle cx="736" cy="86" r="64" fill="#e6f0ff" opacity="0.21"/>
    <circle cx="876" cy="136" r="44" fill="#e6f0ff" opacity="0.31"/>
    <path d="M700 430 C820 386, 970 434, 1080 380" stroke="#e6f0ff" stroke-width="8" fill="none" opacity="0.8"/>
    <rect x="760" y="374" width="38" height="146" rx="8" fill="#e6f0ff" opacity="0.82"/><rect x="822" y="343" width="38" height="177" rx="8" fill="#e6f0ff" opacity="0.82"/><rect x="884" y="312" width="38" height="208" rx="8" fill="#e6f0ff" opacity="0.82"/><rect x="946" y="461" width="38" height="59" rx="8" fill="#e6f0ff" opacity="0.82"/><rect x="1008" y="430" width="38" height="90" rx="8" fill="#e6f0ff" opacity="0.82"/>
  
  <text x="100" y="126" fill="#dbeafe" font-size="26" font-weight="700" font-family="Segoe UI, Arial, sans-serif">Біржа Каналів • Блог</text>
  <text x="100" y="210" fill="#ffffff" font-size="38" font-weight="800" font-family="Segoe UI, Arial, sans-serif">Скрипт переговорів для обміну каналами</text>
  <text x="100" y="280" fill="#f8fafc" font-size="24" font-weight="500" font-family="Segoe UI, Arial, sans-serif">Практичний гайд для обміну YouTube-аудиторією</text>
</svg>