<svg xmlns="http://www.w3.org/2000/svg" width="1200" height="630" viewBox="0 0 1200 630" role="img" aria-label="Retention-метрики після колаборації">
  <defs>
    <linearGradient id="bg-5" x1="0" y1="0" x2="1" y2="1">
      <stop offset="0%" stop-color="#0b5ed7"/>
      <stop offset="100%" stop-color="#ffdd57"/>
    </linearGradient>
  </defs>
  <rect width="1200" height="630" fill="url(#bg-5)"/>
  <path d="M72 110 Q72 70 112 70 H1088 Q1128 70 1128 110 V520 Q1128 560 1088 560 H112 Q72 560 72 520 Z" fill="rgba(7,12,30,.34)" stroke="rgba(255,255,255,.24)"/>
  
    <circle cx="708" cy="98" r="72" fill="#e6f0ff" opacity="0.33"/>
    <circle cx="848" cy="148" r="52" fill="#e6f0ff" opacity="0.43"/>
    <path d="M700 430 C820 368, 970 452, 1080 380" stroke="#e6f0ff" stroke-width="8" fill="none" opacity="0.8"/>
    <rect x="760" y="452" width="38" height="68" rx="8" fill="#e6f0ff" opacity="0.82"/><rect x="822" y="421" width="38" height="99" rx="8" fill="#e6f0ff" opacity="0.82"/><rect x="884" y="390" width="38" height="130" rx="8" fill="#e6f0ff" opacity="0.82"/><rect x="946" y="359" width="38" height="161" rx="8" fill="#e6f0ff" opacity="0.82"/><rect x="1008" y="328" width="38" height="192" rx="8" fill="#e6f0ff" opacity="0.82"/>
  
  <text x="100" y="148" fill="#dbeafe" font-size="26" font-weight="700" font-family="Segoe UI, Arial, sans-serif">Біржа Каналів • Блог</text>
  <text x="100" y="232" fill="#ffffff" font-size="38" font-weight="800" font-family="Segoe UI, Arial, sans-serif">Retention-метрики після колаборації</text>
  <text x="100" y="302" fill="#f8fafc" font-size="24" font-weight="500" font-family="Segoe UI, Arial, sans-serif">Практичний гайд для обміну YouTube-аудиторією</text>
</svg>