<svg xmlns="http://www.w3.org/2000/svg" width="1200" height="630" viewBox="0 0 1200 630" role="img" aria-label="Safe collaboration checklist">
  <defs>
    <linearGradient id="bg3" x1="0" y1="0" x2="1" y2="1">
      <stop offset="0%" stop-color="#005bbb"/>
      <stop offset="100%" stop-color="#1d4ed8"/>
    </linearGradient>
  </defs>
  <rect width="1200" height="630" fill="url(#bg3)"/>
  <rect x="120" y="70" width="640" height="500" rx="24" fill="#ffffff"/>
  <rect x="820" y="140" width="250" height="250" rx="28" fill="#ffd500"/>
  <path d="M945 200 l70 0 l0 65 c0 45 -30 85 -70 100 c-40 -15 -70 -55 -70 -100 l0 -65 z" fill="#005bbb"/>
  <polyline points="240,180 280,220 350,150" fill="none" stroke="#22c55e" stroke-width="12"/>
  <polyline points="240,270 280,310 350,240" fill="none" stroke="#22c55e" stroke-width="12"/>
  <polyline points="240,360 280,400 350,330" fill="none" stroke="#22c55e" stroke-width="12"/>
  <line x1="390" y1="185" x2="700" y2="185" stroke="#cbd5e1" stroke-width="10"/>
  <line x1="390" y1="275" x2="700" y2="275" stroke="#cbd5e1" stroke-width="10"/>
  <line x1="390" y1="365" x2="700" y2="365" stroke="#cbd5e1" stroke-width="10"/>
  <text x="120" y="610" fill="#ffffff" font-family="Arial, sans-serif" font-size="40" font-weight="700">Safe Collaboration Checklist for YouTube Deals</text>
</svg>
