<svg xmlns="http://www.w3.org/2000/svg" width="1200" height="630" viewBox="0 0 1200 630" role="img" aria-label="YouTube-аналітика перед угодою: чеклист">
  <defs>
    <linearGradient id="bg-7" x1="0" y1="0" x2="1" y2="1">
      <stop offset="0%" stop-color="#1d4ed8"/>
      <stop offset="100%" stop-color="#fde047"/>
    </linearGradient>
  </defs>
  <rect width="1200" height="630" fill="url(#bg-7)"/>
  <path d="M70 150 L140 70 H1080 L1130 120 V520 L1080 560 H120 L70 510 Z" fill="rgba(7,12,30,.36)" stroke="rgba(255,255,255,.22)"/>
  
    <circle cx="805" cy="95" r="91" fill="#e6f0ff" opacity="0.30"/>
    <circle cx="945" cy="145" r="71" fill="#e6f0ff" opacity="0.40"/>
    <path d="M700 430 C820 385, 970 435, 1080 380" stroke="#e6f0ff" stroke-width="8" fill="none" opacity="0.8"/>
    <rect x="760" y="455" width="38" height="65" rx="8" fill="#e6f0ff" opacity="0.82"/><rect x="822" y="424" width="38" height="96" rx="8" fill="#e6f0ff" opacity="0.82"/><rect x="884" y="393" width="38" height="127" rx="8" fill="#e6f0ff" opacity="0.82"/><rect x="946" y="362" width="38" height="158" rx="8" fill="#e6f0ff" opacity="0.82"/><rect x="1008" y="331" width="38" height="189" rx="8" fill="#e6f0ff" opacity="0.82"/>
  
  <text x="100" y="126" fill="#dbeafe" font-size="26" font-weight="700" font-family="Segoe UI, Arial, sans-serif">Біржа Каналів • Блог</text>
  <text x="100" y="210" fill="#ffffff" font-size="38" font-weight="800" font-family="Segoe UI, Arial, sans-serif">YouTube-аналітика перед угодою:</text><text x="100" y="256" fill="#ffffff" font-size="38" font-weight="800" font-family="Segoe UI, Arial, sans-serif">чеклист</text>
  <text x="100" y="326" fill="#f8fafc" font-size="24" font-weight="500" font-family="Segoe UI, Arial, sans-serif">Практичний гайд для обміну YouTube-аудиторією</text>
</svg>