<svg width="1200" height="630" viewBox="0 0 1200 630" xmlns="http://www.w3.org/2000/svg" role="img" aria-labelledby="title desc">
  <title id="title">Trust Score and Reviews for YouTube</title>
  <desc id="desc">Blue and yellow card-style illustration for trust score and reviews blog article.</desc>
  <defs>
    <linearGradient id="bg" x1="0" y1="0" x2="1" y2="1">
      <stop offset="0%" stop-color="#f3f8ff"/>
      <stop offset="100%" stop-color="#fff9db"/>
    </linearGradient>
  </defs>
  <rect width="1200" height="630" fill="url(#bg)"/>
  <rect x="95" y="85" width="1010" height="460" rx="26" fill="#ffffff" stroke="#d7e8ff" stroke-width="3"/>
  <rect x="150" y="150" width="350" height="330" rx="18" fill="#0a4d99"/>
  <text x="200" y="240" font-family="Segoe UI, Arial, sans-serif" font-size="34" font-weight="700" fill="#ffffff">Trust Score</text>
  <text x="220" y="330" font-family="Segoe UI, Arial, sans-serif" font-size="104" font-weight="800" fill="#ffd500">4.9</text>
  <rect x="560" y="150" width="480" height="90" rx="14" fill="#eef5ff"/>
  <rect x="560" y="260" width="480" height="90" rx="14" fill="#eef5ff"/>
  <rect x="560" y="370" width="480" height="90" rx="14" fill="#eef5ff"/>
  <circle cx="610" cy="195" r="20" fill="#005bbb"/>
  <circle cx="610" cy="305" r="20" fill="#005bbb"/>
  <circle cx="610" cy="415" r="20" fill="#005bbb"/>
  <rect x="650" y="180" width="340" height="14" rx="7" fill="#bcd7f8"/>
  <rect x="650" y="208" width="280" height="12" rx="6" fill="#c9defa"/>
  <rect x="650" y="290" width="330" height="14" rx="7" fill="#bcd7f8"/>
  <rect x="650" y="318" width="295" height="12" rx="6" fill="#c9defa"/>
  <rect x="650" y="400" width="320" height="14" rx="7" fill="#bcd7f8"/>
  <rect x="650" y="428" width="265" height="12" rx="6" fill="#c9defa"/>
  <text x="130" y="560" font-family="Segoe UI, Arial, sans-serif" font-size="42" font-weight="700" fill="#0f172a">Trust Score і Reviews для YouTube</text>
</svg>
