<svg xmlns="http://www.w3.org/2000/svg" width="1200" height="630" viewBox="0 0 1200 630" role="img" aria-label="Модель оцінки вартості обміну YouTube-каналів у 2026">
  <defs>
    <linearGradient id="bg-0" x1="0" y1="0" x2="1" y2="1">
      <stop offset="0%" stop-color="#005bbb"/>
      <stop offset="100%" stop-color="#ffd500"/>
    </linearGradient>
  </defs>
  <rect width="1200" height="630" fill="url(#bg-0)"/>
  <rect x="70" y="70" width="1060" height="490" rx="32" fill="rgba(7,12,30,.34)" stroke="rgba(255,255,255,.24)"/>
  
    <circle cx="694" cy="144" r="76" fill="#ffffff" opacity="0.19"/>
    <circle cx="834" cy="194" r="56" fill="#ffffff" opacity="0.29"/>
    <path d="M700 430 C820 374, 970 446, 1080 380" stroke="#ffffff" stroke-width="8" fill="none" opacity="0.8"/>
    <rect x="760" y="406" width="38" height="114" rx="8" fill="#ffffff" opacity="0.82"/><rect x="822" y="375" width="38" height="145" rx="8" fill="#ffffff" opacity="0.82"/><rect x="884" y="344" width="38" height="176" rx="8" fill="#ffffff" opacity="0.82"/><rect x="946" y="313" width="38" height="207" rx="8" fill="#ffffff" opacity="0.82"/><rect x="1008" y="462" width="38" height="58" rx="8" fill="#ffffff" opacity="0.82"/>
  
  <text x="100" y="148" fill="#dbeafe" font-size="26" font-weight="700" font-family="Segoe UI, Arial, sans-serif">Біржа Каналів • Блог</text>
  <text x="100" y="232" fill="#ffffff" font-size="38" font-weight="800" font-family="Segoe UI, Arial, sans-serif">Модель оцінки вартості обміну</text><text x="100" y="278" fill="#ffffff" font-size="38" font-weight="800" font-family="Segoe UI, Arial, sans-serif">YouTube-каналів у 2026</text>
  <text x="100" y="348" fill="#f8fafc" font-size="24" font-weight="500" font-family="Segoe UI, Arial, sans-serif">Практичний гайд для обміну YouTube-аудиторією</text>
</svg>