<svg xmlns="http://www.w3.org/2000/svg" width="1200" height="560" viewBox="0 0 1200 560" role="img" aria-label="Кейс: ріст освітнього каналу через обміни — 1. Базова стратегія для теми: кейс: ріст освітнього каналу через обміни">
  <defs>
    <linearGradient id="section-40" x1="0" y1="0" x2="1" y2="1">
      <stop offset="0%" stop-color="#1e40af"/>
      <stop offset="100%" stop-color="#0ea5e9"/>
    </linearGradient>
  </defs>
  <rect width="1200" height="560" fill="url(#section-40)"/>
  <rect x="46" y="46" width="1108" height="468" rx="24" fill="rgba(10,16,35,0.46)" stroke="rgba(255,255,255,0.20)"/>
  <text x="90" y="140" fill="#dbeafe" font-size="22" font-weight="700" font-family="Segoe UI, Arial, sans-serif">Кейс: ріст освітнього каналу через обміни</text>
  <text x="90" y="198" fill="#ffffff" font-size="34" font-weight="800" font-family="Segoe UI, Arial, sans-serif">1. Базова стратегія для теми: кейс: ріст освітнього каналу через обміни</text>
  <text x="90" y="248" fill="#f1f5f9" font-size="22" font-weight="500" font-family="Segoe UI, Arial, sans-serif">Практичний блок аналітики, логіки та SEO-візуалу</text>
  <rect x="560" y="200" width="30" height="90" rx="6" fill="#bae6fd" opacity="0.4"/><rect x="612" y="183" width="30" height="107" rx="6" fill="#bae6fd" opacity="0.48000000000000004"/><rect x="664" y="166" width="30" height="124" rx="6" fill="#bae6fd" opacity="0.56"/><rect x="716" y="149" width="30" height="141" rx="6" fill="#bae6fd" opacity="0.64"/><rect x="768" y="252" width="30" height="38" rx="6" fill="#bae6fd" opacity="0.72"/><rect x="820" y="235" width="30" height="55" rx="6" fill="#bae6fd" opacity="0.8"/>
  <path d="M90 340 C300 300, 430 420, 610 380" stroke="#bae6fd" stroke-width="8" fill="none" opacity="0.85"/>
  <circle cx="625" cy="378" r="8" fill="#bae6fd"/>
  <text x="90" y="420" fill="#e2e8f0" font-size="19" font-weight="500" font-family="Segoe UI, Arial, sans-serif">Біржа Каналів • Розділ 1</text>
</svg>