<svg xmlns="http://www.w3.org/2000/svg" width="1200" height="560" viewBox="0 0 1200 560" role="img" aria-label="Модель оцінки вартості обміну YouTube-каналів у 2026 — 3. Аналітика та цикл ітерацій у темі: модель оцінки вартості обміну youtube-каналів у 2026">
  <defs>
    <linearGradient id="section-3" x1="0" y1="0" x2="1" y2="1">
      <stop offset="0%" stop-color="#0a4f9f"/>
      <stop offset="100%" stop-color="#4f46e5"/>
    </linearGradient>
  </defs>
  <rect width="1200" height="560" fill="url(#section-3)"/>
  <rect x="46" y="46" width="1108" height="468" rx="24" fill="rgba(10,16,35,0.46)" stroke="rgba(255,255,255,0.20)"/>
  <text x="90" y="140" fill="#dbeafe" font-size="22" font-weight="700" font-family="Segoe UI, Arial, sans-serif">Модель оцінки вартості обміну YouTube-каналів у 2026</text>
  <text x="90" y="198" fill="#ffffff" font-size="34" font-weight="800" font-family="Segoe UI, Arial, sans-serif">3. Аналітика та цикл ітерацій у темі: модель оцінки вартості обміну youtube-каналів у 2026</text>
  <text x="90" y="248" fill="#f1f5f9" font-size="22" font-weight="500" font-family="Segoe UI, Arial, sans-serif">Практичний блок аналітики, логіки та SEO-візуалу</text>
  <rect x="560" y="142" width="30" height="148" rx="6" fill="#bfdbfe" opacity="0.4"/><rect x="612" y="245" width="30" height="45" rx="6" fill="#bfdbfe" opacity="0.48000000000000004"/><rect x="664" y="228" width="30" height="62" rx="6" fill="#bfdbfe" opacity="0.56"/><rect x="716" y="211" width="30" height="79" rx="6" fill="#bfdbfe" opacity="0.64"/><rect x="768" y="194" width="30" height="96" rx="6" fill="#bfdbfe" opacity="0.72"/><rect x="820" y="177" width="30" height="113" rx="6" fill="#bfdbfe" opacity="0.8"/>
  <path d="M90 340 C300 300, 430 420, 610 380" stroke="#bfdbfe" stroke-width="8" fill="none" opacity="0.85"/>
  <circle cx="625" cy="378" r="8" fill="#bfdbfe"/>
  <text x="90" y="420" fill="#e2e8f0" font-size="19" font-weight="500" font-family="Segoe UI, Arial, sans-serif">Біржа Каналів • Розділ 3</text>
</svg>